<svg width="22" height="20" viewBox="0 0 22 20" fill="none" xmlns="http://www.w3.org/2000/svg">
<path d="M6.55799 7.46498H15.442L12.3253 1.37012C12.0924 0.910754 12.2681 0.344784 12.7149 0.105919C13.1656 -0.132946 13.7194 0.0458025 13.9524 0.50529L17.5083 7.46498H20.7778C21.4538 7.46498 22 8.05872 22 8.71497C22 9.44152 21.4538 9.96495 20.7778 9.96495L18.7955 18.1055C18.4899 19.2188 17.5465 20 16.4236 20H5.54201C4.45347 20 3.47569 19.2188 3.20375 18.1055L1.22222 9.96495C0.547326 9.96495 0 9.44152 0 8.71497C0 8.05872 0.547326 7.46498 1.22222 7.46498H4.49167L8.04757 0.50529C8.28056 0.0458025 8.83438 -0.132946 9.28507 0.105919C9.73195 0.344784 9.90764 0.910754 9.67465 1.37012L6.55799 7.46498ZM7.29896 11.8399C7.29896 11.5274 7.05833 11.2149 6.68785 11.2149C6.38611 11.2149 6.07674 11.5274 6.07674 11.8399V15.5899C6.07674 15.9688 6.38611 16.2149 6.68785 16.2149C7.05833 16.2149 7.29896 15.9688 7.29896 15.5899V11.8399ZM10.3545 11.8399V15.5899C10.3545 15.9688 10.6639 16.2149 10.9656 16.2149C11.3361 16.2149 11.6111 15.9688 11.6111 15.5899V11.8399C11.6111 11.5274 11.3361 11.2149 10.9656 11.2149C10.6639 11.2149 10.3545 11.5274 10.3545 11.8399ZM15.8889 11.8399C15.8889 11.5274 15.6139 11.2149 15.2778 11.2149C14.9417 11.2149 14.6667 11.5274 14.6667 11.8399V15.5899C14.6667 15.9688 14.9417 16.2149 15.2778 16.2149C15.6139 16.2149 15.8889 15.9688 15.8889 15.5899V11.8399Z" fill="white"/>
</svg>
